<svg width="123" height="35" viewBox="0 0 123 35" fill="none" xmlns="http://www.w3.org/2000/svg">
<g clip-path="url(#clip0_78_2896)">
<path d="M47.4889 20.7205H50.1991C49.8008 22.2676 49.0417 23.4462 47.9218 24.2563C46.8019 25.1026 45.3926 25.5257 43.6938 25.5257C41.6338 25.5257 40.0261 24.8426 38.8707 23.4763C37.7137 22.1503 37.1353 20.254 37.1353 17.7875C37.1353 15.4311 37.6956 13.5898 38.8163 12.2637C39.9717 10.9015 41.5798 10.2184 43.6406 10.2144C45.8078 10.2144 47.4881 10.877 48.6813 12.2023C49.8367 13.5685 50.4148 15.4648 50.4156 17.8911V18.4939C50.4245 18.6254 50.4059 18.7572 50.3612 18.8809H40.9847C41.0202 20.0221 41.2911 20.8692 41.7975 21.4221C42.2707 22.0112 42.9753 22.3058 43.9115 22.3058C44.4581 22.3287 45.0008 22.2026 45.4837 21.9405C45.5964 21.9007 45.6985 21.8346 45.7818 21.7476C45.8705 21.656 45.9711 21.5535 46.0799 21.4438C46.1154 21.3329 46.2507 21.1854 46.4857 21.0014C46.7211 20.8133 47.0547 20.7205 47.4889 20.7205ZM40.9824 16.412H46.5105C46.438 15.4186 46.1852 14.682 45.7522 14.2022C45.279 13.6875 44.6142 13.4295 43.7411 13.4295C42.9461 13.4295 42.2959 13.6871 41.7904 14.2022C41.2848 14.7174 41.0163 15.454 40.9847 16.412H40.9824Z" fill="#4A4B4B"/>
<path d="M75.3487 20.7205H78.059C77.6607 22.2676 76.9016 23.4462 75.7817 24.2563C74.661 25.1026 73.2517 25.5257 71.5537 25.5257C69.4945 25.5257 67.8864 24.8426 66.7294 23.4763C65.5724 22.1503 64.9943 20.254 64.9951 17.7875C64.9951 15.4311 65.5551 13.5898 66.675 12.2637C67.832 10.9015 69.44 10.2184 71.4993 10.2144C73.6681 10.2144 75.3487 10.877 76.5412 12.2023C77.6966 13.5685 78.2747 15.4648 78.2755 17.8911V18.4939C78.2837 18.6253 78.2652 18.7571 78.2211 18.8809H68.8434C68.8789 20.0221 69.1498 20.8692 69.6561 21.4221C70.1293 22.0112 70.834 22.3058 71.7702 22.3058C72.318 22.3299 72.8622 22.2038 73.3459 21.9405C73.4589 21.9013 73.5611 21.8351 73.644 21.7476L73.9421 21.4438C73.9776 21.3329 74.1133 21.1854 74.3491 21.0014C74.5798 20.8133 74.9146 20.7205 75.3487 20.7205ZM68.8422 16.412H74.3716C74.2982 15.4186 74.0451 14.682 73.6121 14.2022C73.1389 13.6871 72.4685 13.4295 71.601 13.4295C70.806 13.4295 70.1554 13.6871 69.649 14.2022C69.1427 14.7174 68.8742 15.454 68.8434 16.412H68.8422Z" fill="#4A4B4B"/>
<path d="M59.7186 25.2496H55.8703L50.8296 10.5578H54.84L57.7135 20.8868L60.2605 11.8827C60.5491 10.9987 61.1272 10.5566 61.9947 10.5566H64.8138L59.7186 25.2496Z" fill="#4A4B4B"/>
<path d="M92.6466 25.2498H90.7538C90.5087 25.2613 90.264 25.2206 90.0353 25.1303C89.8066 25.0399 89.5989 24.902 89.4254 24.7252C89.252 24.5485 89.1166 24.3368 89.028 24.1037C88.9393 23.8706 88.8994 23.6213 88.9107 23.3716V15.86C88.9107 14.9759 88.6488 14.333 88.1252 13.9311C87.6201 13.5354 86.9996 13.3232 86.3625 13.3284C85.7336 13.3203 85.1212 13.5331 84.6282 13.9311C84.1219 14.3378 83.8691 14.9807 83.8699 15.86V25.2498H80.0713V16.6363C80.0713 14.1328 80.7129 12.4572 81.996 11.6093C83.2674 10.7661 84.739 10.2891 86.2548 10.229C87.8054 10.2181 89.327 10.6576 90.6414 11.496C91.9782 12.3438 92.6466 14.0565 92.6466 16.6339V25.2498Z" fill="#4A4B4B"/>
<path d="M104.246 6.19393H106.089C106.334 6.19152 106.576 6.24195 106.801 6.34189C107.025 6.44183 107.226 6.58902 107.39 6.77379C107.56 6.94387 107.696 7.14658 107.789 7.37023C107.882 7.59388 107.931 7.83407 107.932 8.07696V18.8423C107.932 21.4583 107.191 23.2264 105.709 24.1466C104.26 25.0581 102.588 25.5364 100.885 25.5269C99.9448 25.5266 99.0111 25.3682 98.1215 25.058C97.2677 24.7804 96.5133 24.2519 95.9531 23.539C94.9041 22.1728 94.3801 20.313 94.3809 17.9599C94.3809 15.6404 94.9049 13.7811 95.9531 12.3819C97.0367 10.9449 98.4279 10.2268 100.127 10.2276C100.954 10.2101 101.773 10.3996 102.512 10.7797C103.215 11.2022 103.809 11.789 104.246 12.4916V6.19393ZM98.0706 17.7935C98.0706 19.2666 98.3415 20.3918 98.8834 21.169C99.4252 21.9461 100.202 22.3327 101.214 22.3287C102.19 22.3287 102.949 21.9421 103.491 21.169C103.996 20.395 104.249 19.2699 104.249 17.7935C104.249 16.4674 103.979 15.4178 103.437 14.6447C102.859 13.9077 102.081 13.5396 101.105 13.5404C100.669 13.5267 100.236 13.6259 99.8476 13.8287C99.4591 14.0315 99.1274 14.3313 98.8834 14.7001C98.3415 15.4371 98.0706 16.4682 98.0706 17.7935Z" fill="#4A4B4B"/>
<path d="M111.835 23.9237C111.075 23.2623 110.533 22.3694 110.208 21.245C109.881 20.1061 109.717 18.9249 109.721 17.7382C109.722 16.7298 109.859 15.7265 110.127 14.7557C110.358 13.8381 110.794 12.9874 111.401 12.2699C112.34 11.1624 113.551 10.5086 115.032 10.3085C116.514 10.1084 117.851 10.2289 119.043 10.6702C120.382 11.1904 121.47 12.2204 122.078 13.5429C122.693 14.7581 123 16.1758 123 17.796C123 18.975 122.873 19.9877 122.62 20.8339C122.405 21.5984 122.076 22.3248 121.645 22.9882C120.778 24.2026 119.676 24.9572 118.339 25.2522C117.163 25.5834 115.924 25.6119 114.734 25.3354C113.523 25.0581 112.556 24.5875 111.835 23.9237ZM114.437 14.2024C113.678 15.051 113.334 16.3124 113.407 17.9865C113.48 19.6606 113.787 20.8299 114.329 21.4946C114.545 21.7887 114.925 22.0371 115.467 22.2396C115.998 22.4421 116.58 22.4616 117.123 22.295C117.683 22.1287 118.18 21.7144 118.613 21.0521C119.047 20.3899 119.284 19.3218 119.323 17.8479C119.323 16.5226 119.115 15.5284 118.7 14.8654C118.283 14.2024 117.804 13.7804 117.262 13.5948C116.737 13.4114 116.168 13.4021 115.637 13.5682C115.089 13.7338 114.689 13.9452 114.436 14.2024H114.437Z" fill="#4A4B4B"/>
<path d="M31.5044 2.93896H2.93262V32.0548H31.5044V2.93896Z" fill="#EB604D"/>
<path d="M31.5455 32.0965C31.1605 32.348 30.7529 32.5615 30.3282 32.7343C30.1105 32.8343 29.8751 32.9187 29.6444 33.0115C29.4138 33.1043 29.1653 33.1803 28.9228 33.2683C28.6803 33.3563 28.4212 33.425 28.1681 33.5094C27.9149 33.5938 27.6452 33.6541 27.3826 33.7288C26.8538 33.8747 26.3013 33.9952 25.737 34.1158C23.3203 34.6123 20.8667 34.8991 18.4024 34.9729C15.7704 35.0687 13.1353 34.9125 10.5319 34.5064C9.87534 34.4003 9.22233 34.2809 8.57286 34.1278C8.24754 34.0495 7.92576 33.982 7.6028 33.8952C7.27984 33.8084 6.96162 33.7228 6.64339 33.6275C6.32516 33.5323 6.00812 33.4323 5.69699 33.3213C5.38586 33.2104 5.07 33.1031 4.76005 32.9741C4.13122 32.733 3.52071 32.4449 2.9335 32.1122L2.89328 32.0893L2.87435 32.0519C2.56963 31.4637 2.30251 30.8561 2.07465 30.2328C1.95635 29.929 1.85697 29.63 1.7505 29.3226C1.64403 29.0152 1.56004 28.7199 1.46422 28.4124C1.3684 28.105 1.29623 27.8097 1.21106 27.5023C1.12588 27.1949 1.06318 26.8995 0.988652 26.5933C0.840777 25.9905 0.722477 25.3793 0.614824 24.773C0.19894 22.3708 -0.00692055 19.9357 -0.000335173 17.4964C-0.00604899 15.0563 0.200203 12.6205 0.616007 10.2175C0.72366 9.6147 0.84196 9.0047 0.989835 8.39832C1.06436 8.09453 1.12943 7.79556 1.21342 7.48815C1.29742 7.18074 1.37549 6.88539 1.4654 6.57798C1.64995 5.97522 1.84278 5.36522 2.07465 4.75884C2.30208 4.13517 2.56881 3.52713 2.87317 2.9385L2.89328 2.89992L2.93232 2.87822C3.50993 2.57202 4.1062 2.30384 4.71747 2.07534C5.01558 1.95479 5.30897 1.85714 5.61063 1.74985C5.9123 1.64256 6.20213 1.55817 6.50379 1.46173C7.67857 1.11312 8.87076 0.828619 10.0753 0.609426C12.4341 0.19275 14.8243 -0.0113704 17.2182 -0.00056942C19.6124 -0.00419382 22.0023 0.203937 24.3612 0.621481C25.5655 0.840695 26.7576 1.12439 27.9326 1.47138C28.5241 1.65582 29.1227 1.84991 29.7178 2.08137C30.3291 2.3085 30.9257 2.57464 31.5041 2.87822L31.542 2.89872L31.5633 2.9385C31.8697 3.53869 32.135 4.15982 32.3571 4.79742C32.5937 5.42791 32.7794 6.06804 32.9604 6.7142C33.1414 7.36036 33.2928 8.01497 33.4241 8.67198C33.5554 9.32899 33.6761 9.99805 33.779 10.6599C34.1585 13.3031 34.3078 15.9753 34.225 18.6453C34.1651 21.1544 33.9028 23.6542 33.4407 26.1195C33.3307 26.697 33.2112 27.2612 33.0751 27.8073C33.0053 28.0773 32.9415 28.351 32.8693 28.6138L32.6504 29.3829C32.5688 29.6324 32.4931 29.8844 32.4138 30.1267C32.3346 30.369 32.247 30.6089 32.1536 30.8319C31.9885 31.2712 31.785 31.6944 31.5455 32.0965ZM31.4615 32.0121L31.4379 28.3594L31.4249 24.7211L31.3988 17.4518L31.4095 10.1994L31.4189 6.57075L31.445 2.9385L31.5041 2.99878L27.9326 3.0253L24.3612 3.03494L17.2182 3.05302L10.0753 3.03494L6.50616 3.0253L2.93469 2.99878L2.99384 2.9385L2.95716 6.57798V10.2175L2.93705 17.4964L2.95716 24.7754V28.4149L2.98674 32.0543L2.92759 31.9941L6.49078 31.9639L10.0516 31.9543L17.1674 31.941L24.2997 31.9699L27.8699 31.9844L31.4615 32.0121Z" fill="#EB604D"/>
<path d="M22.4471 14.0504C21.9651 14.5421 21.5913 15.1326 21.3504 15.7827C21.323 15.8851 21.2887 15.9854 21.2475 16.0829C20.9297 17.1336 20.9662 18.2625 21.3512 19.2896C21.7361 20.3167 22.4474 21.1829 23.3716 21.7503C24.2958 22.3176 25.3797 22.5534 26.4507 22.42C27.5216 22.2866 28.518 21.7918 29.2809 21.0143C30.0438 20.2369 30.5294 19.2216 30.6603 18.1302C30.7911 17.0389 30.5598 15.9343 30.0031 14.9925C29.4463 14.0507 28.5963 13.3259 27.5884 12.9337C26.5804 12.5414 25.4727 12.5042 24.4416 12.828C24.3458 12.8709 24.2469 12.9063 24.1459 12.9341C23.5081 13.1788 22.9289 13.5593 22.4471 14.0504Z" fill="white"/>
<path d="M20.5211 22.9738C19.9003 22.3412 19.1219 21.8931 18.2698 21.6777C17.4177 21.4623 16.524 21.4878 15.685 21.7514C15.5892 21.7942 15.4903 21.8297 15.3893 21.8574C15.0407 21.9528 14.6737 21.9533 14.3249 21.8589C13.9761 21.7644 13.6577 21.5784 13.4015 21.3194C13.1453 21.0604 12.9602 20.7374 12.8648 20.3827C12.7694 20.0281 12.7669 19.6541 12.8577 19.2981C13.2437 18.2689 13.2812 17.1376 12.9641 16.0842C12.9218 15.9864 12.8874 15.8852 12.8612 15.7816C12.7671 15.4249 12.7669 15.0493 12.8605 14.6924C12.9542 14.3356 13.1385 14.0103 13.3948 13.7491C13.651 13.4879 13.9703 13.3001 14.3205 13.2047C14.6706 13.1093 15.0393 13.1095 15.3893 13.2054C15.4903 13.2332 15.5892 13.2686 15.685 13.3115C16.7158 13.6351 17.8233 13.5978 18.8309 13.2055C19.8384 12.8132 20.6882 12.0886 21.2447 11.147C21.8012 10.2055 22.0324 9.10123 21.9016 8.0102C21.7707 6.91918 21.2852 5.90419 20.5225 5.12698C19.7598 4.34976 18.7638 3.85505 17.6932 3.72168C16.6225 3.58831 15.5389 3.82395 14.6149 4.39105C13.691 4.95815 12.9799 5.82408 12.5949 6.85085C12.21 7.87762 12.1734 9.00613 12.4909 10.0566C12.5332 10.1537 12.568 10.2541 12.5951 10.3567C12.6892 10.7134 12.6894 11.0891 12.5957 11.4459C12.5021 11.8027 12.3178 12.1281 12.0615 12.3893C11.8052 12.6504 11.4859 12.8382 11.1358 12.9336C10.7856 13.0291 10.417 13.0288 10.067 12.9329C9.96568 12.9065 9.86675 12.8714 9.77123 12.8281C9.03604 12.5969 8.2573 12.5481 7.49984 12.6857C6.74239 12.8232 6.02814 13.1432 5.41656 13.6189C4.80498 14.0946 4.31376 14.7123 3.98381 15.4206C3.65386 16.1289 3.49471 16.9072 3.51962 17.6908C3.54453 18.4745 3.75278 19.2407 4.12703 19.9257C4.50128 20.6108 5.0307 21.1948 5.67121 21.6292C6.31172 22.0635 7.0448 22.3357 7.8094 22.423C8.574 22.5103 9.34801 22.4102 10.067 22.1311C10.4174 22.0356 10.7863 22.0359 11.1366 22.132C11.4869 22.2281 11.8062 22.4165 12.0622 22.6783C12.3183 22.9401 12.5022 23.2661 12.5953 23.6233C12.6884 23.9806 12.6875 24.3565 12.5927 24.7133C12.5653 24.8157 12.5309 24.916 12.4898 25.0135C12.2382 25.8467 12.2083 26.733 12.4031 27.5818C12.5979 28.4306 13.0104 29.2115 13.5984 29.8446C14.1865 30.4777 14.9289 30.9403 15.7499 31.1851C16.5709 31.4299 17.441 31.4481 18.2712 31.2379C19.1014 31.0276 19.8619 30.5965 20.475 29.9886C21.088 29.3807 21.5317 28.6177 21.7605 27.7778C21.9894 26.9378 21.9952 26.051 21.7774 25.208C21.5597 24.365 21.1261 23.5961 20.5211 22.9798V22.9738ZM11.3245 21.4078C11.3446 21.3921 11.3647 21.3789 11.3848 21.362C11.3564 21.3789 11.3411 21.3921 11.321 21.4078H11.3245ZM12.1408 20.5808C12.123 20.6049 12.1041 20.6278 12.084 20.6519C12.1006 20.629 12.1195 20.6049 12.1372 20.5808H12.1408Z" fill="white"/>
</g>
<defs>
<clipPath id="clip0_78_2896">
<rect width="123" height="35" fill="white"/>
</clipPath>
</defs>
</svg>
