<svg width="30" height="20" viewBox="0 0 30 20" fill="none" xmlns="http://www.w3.org/2000/svg">
<g clip-path="url(#clip0_78_2915)">
<path d="M30 0H0V20.0002H30V0Z" fill="#F0F0F0"/>
<path d="M16.875 -0.000244141H13.125V8.12472H0V11.8747H13.125V19.9997H16.875V11.8747H30V8.12472H16.875V-0.000244141Z" fill="#D80027"/>
<path d="M23.0732 13.478L29.9999 17.3262V13.478H23.0732Z" fill="#0052B4"/>
<path d="M18.2607 13.478L29.9999 19.9997V18.1556L21.5804 13.478H18.2607Z" fill="#0052B4"/>
<path d="M26.873 19.9998L18.2607 15.2148V19.9998H26.873Z" fill="#0052B4"/>
<path d="M18.2607 13.478L29.9999 19.9997V18.1556L21.5804 13.478H18.2607Z" fill="#F0F0F0"/>
<path d="M18.2607 13.478L29.9999 19.9997V18.1556L21.5804 13.478H18.2607Z" fill="#D80027"/>
<path d="M5.29342 13.4778L0 16.4186V13.4778H5.29342Z" fill="#0052B4"/>
<path d="M11.7392 14.3071V19.9996H1.49365L11.7392 14.3071Z" fill="#0052B4"/>
<path d="M8.41951 13.478L0 18.1556V19.9997L11.7391 13.478H8.41951Z" fill="#D80027"/>
<path d="M6.92666 6.52154L0 2.67334V6.52154H6.92666Z" fill="#0052B4"/>
<path d="M11.7391 6.52147L0 -0.000244141V1.84394L8.41951 6.52147H11.7391Z" fill="#0052B4"/>
<path d="M3.12695 -0.000244141L11.7392 4.78476V-0.000244141H3.12695Z" fill="#0052B4"/>
<path d="M11.7391 6.52147L0 -0.000244141V1.84394L8.41951 6.52147H11.7391Z" fill="#F0F0F0"/>
<path d="M11.7391 6.52147L0 -0.000244141V1.84394L8.41951 6.52147H11.7391Z" fill="#D80027"/>
<path d="M24.7065 6.52163L30 3.58081V6.52163H24.7065Z" fill="#0052B4"/>
<path d="M18.2607 5.6922V-0.000244141H28.5063L18.2607 5.6922Z" fill="#0052B4"/>
<path d="M21.5804 6.52147L29.9999 1.84394V-0.000244141L18.2607 6.52147H21.5804Z" fill="#D80027"/>
</g>
<defs>
<clipPath id="clip0_78_2915">
<rect width="30" height="20" rx="3" fill="white"/>
</clipPath>
</defs>
</svg>
